HIERARCHY
ROOT Hips
{
	OFFSET	0.00	0.00	0.00
	CHANNELS 6 Xposition Yposition Zposition Zrotation Xrotation Yrotation
	JOINT LeftHip
	{
		OFFSET	 3.430000	 0.000000	 0.000000
		CHANNELS 3 Zrotation Xrotation Yrotation
		JOINT LeftKnee
		{
			OFFSET	 0.000000	-18.469999	 0.000000
			CHANNELS 3 Zrotation Xrotation Yrotation
			JOINT LeftAnkle
			{
				OFFSET	 0.000000	-17.950001	 0.000000
				CHANNELS 3 Zrotation Xrotation Yrotation
				End Site 
				{
					OFFSET	 0.000000	-3.119996	 0.000000
				}
			}
		}
	}
	JOINT RightHip
	{
		OFFSET	-3.430000	 0.000000	 0.000000
		CHANNELS 3 Zrotation Xrotation Yrotation
		JOINT RightKnee
		{
			OFFSET	 0.000000	-18.809999	 0.000000
			CHANNELS 3 Zrotation Xrotation Yrotation
			JOINT RightAnkle
			{
				OFFSET	 0.000000	-17.570000	 0.000000
				CHANNELS 3 Zrotation Xrotation Yrotation
				End Site 
				{
					OFFSET	 0.000000	-3.250000	 0.000000
				}
			}
		}
	}
	JOINT Chest
	{
		OFFSET	 0.000000	 4.570000	 0.000000
		CHANNELS 3 Zrotation Xrotation Yrotation
		JOINT LeftCollar
		{
			OFFSET	 1.060000	 15.330000	 1.760000
			CHANNELS 3 Zrotation Xrotation Yrotation
			JOINT LeftShoulder
			{
				OFFSET	 5.810000	 0.000000	 0.000000
				CHANNELS 3 Zrotation Xrotation Yrotation
				JOINT LeftElbow
				{
					OFFSET	 0.000000	-12.080000	 0.000000
					CHANNELS 3 Zrotation Xrotation Yrotation
					JOINT LeftWrist
					{
						OFFSET	 0.000000	-9.820000	 0.000000
						CHANNELS 3 Zrotation Xrotation Yrotation
						End Site 
						{
							OFFSET	 0.000000	-7.369996	 0.000000
						}
					}
				}
			}
		}
		JOINT RightCollar
		{
			OFFSET	-1.060000	 15.330000	 1.760000
			CHANNELS 3 Zrotation Xrotation Yrotation
			JOINT RightShoulder
			{
				OFFSET	-6.060000	 0.000000	 0.000000
				CHANNELS 3 Zrotation Xrotation Yrotation
				JOINT RightElbow
				{
					OFFSET	 0.000000	-11.900000	 0.000000
					CHANNELS 3 Zrotation Xrotation Yrotation
					JOINT RightWrist
					{
						OFFSET	 0.000000	-9.520000	 0.000000
						CHANNELS 3 Zrotation Xrotation Yrotation
						End Site 
						{
							OFFSET	 0.000000	-7.140012	 0.000000
						}
					}
				}
			}
		}
		JOINT Neck
		{
			OFFSET	 0.000000	 17.620001	 0.000000
			CHANNELS 3 Zrotation Xrotation Yrotation
			JOINT Head
			{
				OFFSET	 0.000000	 5.190000	 0.000000
				CHANNELS 3 Zrotation Xrotation Yrotation
				End Site 
				{
					OFFSET	 0.000000	 4.140008	 0.000000
				}
			}
		}
	}
}

MOTION
Frames: 28
Frame Time: 0.033333
16.2226 -4.4749 -51.5457 11.4988 0.0166025 -82.8383 36.1685 -31.7523 24.979 2.52658 40.8973 -4.85536 -23.6964 -1.70585 -0.764139 -30.7934 -28.3098 -28.9496 -7.89597 49.2835 8.97694 10.6675 -24.4096 12.4474 -2.68022 35.0024 -2.34319 0 0 0 11.7452 -46.8513 9.69422 -24.4524 -30.7638 -17.9972 32.5269 -16.5061 -57.8991 0 0 0 -16.2829 -34.4488 -11.3617 15.0646 -30.9849 16.3986 -33.2906 -21.6646 18.4732 0 0 0 -17.5603 -14.2393 31.2801 
16.3356 -4.0254 -51.5884 11.9556 0.104884 -84.113 35.6173 -31.4009 24.9442 2.43393 41.0093 -4.71842 -23.2315 -1.83969 0.633026 -30.2201 -29.3248 -29.0177 -7.36682 48.6021 8.56745 10.1463 -23.0538 13.2445 -1.46769 35.1362 -2.9698 0 0 0 13.1517 -43.6717 6.61222 -22.6415 -28.6471 -16.5328 30.6698 -15.479 -59.4332 0 0 0 -16.3132 -37.7447 -11.1365 14.3935 -31.1619 15.5849 -32.0916 -20.7122 19.3349 0 0 0 -17.754 -12.8952 27.6206 
16.3732 -3.5232 -51.5256 12.5263 0.335974 -85.7553 34.903 -30.6901 25.1595 2.55935 40.6926 -4.64529 -22.6487 -2.30583 1.74661 -29.6167 -30.4625 -29.3947 -7.28723 47.3738 8.58671 12.5074 -19.6711 15.4311 -0.342122 35.2513 -2.90908 0 0 0 14.6015 -39.374 5.61952 -23.0961 -28.7017 -17.2353 30.1721 -15.2814 -60.0429 0 0 0 -17.0863 -39.9157 -12.2559 15.2491 -33.1171 15.2672 -31.8751 -20.8559 21.2084 0 0 0 -18.3901 -12.9705 26.519 
16.3632 -2.933 -51.3272 13.1321 0.863541 -87.6479 34.4229 -29.8763 25.3442 2.58141 40.292 -4.61193 -22.2518 -3.05394 2.52569 -28.7475 -31.5407 -29.5908 -7.72399 45.9902 8.61351 13.7065 -16.1637 16.5769 0.986941 35.1915 -2.4637 0 0 0 15.473 -34.4651 5.51986 -24.2017 -29.774 -18.2307 31.1484 -17.4989 -57.9545 0 0 0 -19.5952 -40.8527 -16.0373 17.9386 -36.61 16.0908 -31.9397 -20.7811 22.8796 0 0 0 -19.2255 -13.8021 27.6682 
16.2929 -2.4007 -51.1363 13.681 1.20798 -89.4823 33.6273 -29.2029 24.9857 2.48772 39.8991 -4.5942 -22.0132 -4.09191 2.99775 -28.2497 -32.1665 -28.6727 -7.29276 44.6999 7.97832 13.4077 -13.0765 14.8784 2.23166 34.8199 -1.56447 0 0 0 15.6291 -29.5633 5.90982 -25.4334 -31.1101 -19.1256 33.9831 -20.5524 -53.6909 0 0 0 -23.1538 -40.5156 -22.2268 22.7552 -41.2872 19.0418 -31.6426 -21.7758 25.5911 0 0 0 -19.9159 -14.8899 31.0866 
16.2201 -1.8984 -50.953 14.1627 1.52876 -91.2308 32.8766 -28.6629 24.738 2.51087 39.2949 -4.48939 -21.9772 -4.40324 2.61131 -27.6866 -32.7818 -27.1562 -7.04535 43.4821 7.48335 12.6956 -10.3762 13.1403 3.24926 34.338 -0.386571 0 0 0 15.3853 -25.0826 7.17963 -26.7048 -32.2571 -19.9675 36.3386 -22.0994 -49.14 0 0 0 -26.9506 -39.0174 -28.7868 29.3128 -46.4895 23.3719 -30.7248 -22.9715 29.6359 0 0 0 -20.3886 -16.0855 35.9641 
16.1849 -1.4414 -50.9204 14.818 1.59607 -92.3011 32.5977 -29.1205 24.3469 2.33128 38.7116 -4.45708 -22.0006 -3.8773 3.13649 -27.5348 -33.292 -25.8395 -6.56492 42.5358 6.8159 13.6367 -7.96375 11.2282 4.1018 33.5944 0.569647 0 0 0 14.98 -21.2175 8.81502 -27.8302 -33.2025 -20.7024 37.8192 -23.2141 -45.1308 0 0 0 -30.0483 -36.9977 -35.3431 37.8891 -51.1884 29.717 -30.2276 -24.6656 34.6545 0 0 0 -20.4948 -17.0926 41.6226 
16.1623 -1.13 -51.0359 15.6498 1.52153 -92.7168 32.5334 -30.0723 24.1023 2.42436 38.1249 -4.69217 -22.2413 -2.95234 3.57996 -27.6971 -33.3468 -24.891 -6.10431 41.485 6.12062 14.7428 -6.56335 9.34791 4.78975 33.0672 1.37027 0 0 0 14.806 -18.1777 10.6342 -28.9696 -34.0126 -21.5869 38.7926 -23.9725 -41.1903 0 0 0 -32.1219 -35.0693 -40.6365 48.4405 -55.4963 37.7936 -29.2127 -26.3125 40.9297 0 0 0 -20.1845 -17.7023 47.2617 
16.205 -1.0145 -51.3021 16.5869 1.22023 -92.2051 32.8878 -31.1188 24.2297 2.41491 38.038 -4.5573 -23.0727 -1.41336 1.9773 -28.4991 -32.9974 -24.7533 -5.90162 40.9467 6.16702 15.3709 -7.291 7.55171 4.76027 32.8742 2.38892 0 0 0 15.5997 -16.8656 12.2075 -30.036 -34.43 -22.0205 39.1351 -23.9529 -37.5732 0 0 0 -33.082 -34.1105 -43.8298 58.7737 -58.055 46.497 -29.0366 -27.5997 47.523 0 0 0 -19.8418 -17.9663 51.5916 
16.3406 -1.1074 -51.6386 17.5186 0.624847 -91.0803 32.7292 -32.1166 24.2347 2.45388 38.3304 -4.48837 -24.1979 0.0719982 -0.4029 -29.6137 -32.7021 -25.5881 -5.85132 40.9481 5.97962 13.5124 -9.64118 5.64671 4.22947 32.8666 3.5071 0 0 0 16.9875 -16.4832 13.5688 -31.2407 -34.8238 -22.5539 39.0998 -23.2032 -34.089 0 0 0 -33.8072 -34.0752 -45.6218 68.5991 -59.2057 55.2676 -28.408 -28.444 54.1968 0 0 0 -19.5206 -18.1263 54.4666 
16.4888 -1.3711 -51.9424 18.3118 -0.0506385 -89.4586 31.7822 -33.0859 23.6329 2.28224 39.2252 -4.48402 -24.237 -0.782508 -2.03189 -31.3565 -32.5458 -27.0591 -5.73587 41.4003 5.94649 12.6406 -12.3216 5.07909 3.55483 32.9274 4.27288 0 0 0 18.776 -16.7493 15.026 -32.5834 -35.1055 -23.2596 38.6454 -22.1904 -31.2976 0 0 0 -34.7387 -35.3561 -44.8161 73.6583 -59.1477 60.3542 -27.4505 -29.9547 60.1399 0 0 0 -19.4466 -18.4529 55.392 
16.6721 -1.7528 -52.1584 18.6457 -0.612449 -87.8427 30.2274 -33.6472 23.1349 2.56142 40.1837 -4.56601 -23.8554 -3.66755 -3.70199 -32.8413 -32.3508 -29.2537 -6.20774 41.9225 6.57861 13.2796 -15.0485 7.20959 2.88035 33.32 4.75204 0 0 0 20.7497 -17.7145 16.2937 -33.91 -35.2622 -24.0382 37.0815 -21.6168 -30.5438 0 0 0 -35.9813 -38.092 -42.2609 69.7129 -57.6192 57.6818 -26.5182 -31.2902 64.6568 0 0 0 -19.5848 -19.0574 54.1827 
16.8554 -2.1772 -52.3166 18.6581 -0.997708 -86.2312 28.287 -34.061 21.8375 2.8996 41.1847 -4.99883 -23.5942 -7.38403 -4.61707 -34.5724 -32.0282 -31.3888 -6.07495 43.0302 6.54624 14.2302 -17.0189 8.64279 2.9187 33.5897 4.61041 0 0 0 22.704 -18.9344 16.5541 -35.1909 -35.4895 -24.7676 34.8044 -20.9612 -30.4706 0 0 0 -37.8531 -42.6373 -39.2024 57.0764 -54.1216 48.3802 -25.3622 -29.1565 66.8589 0 0 0 -20.1302 -19.5609 51.4022 
16.9659 -2.6417 -52.3493 18.4112 -1.14148 -85.3755 26.6899 -33.8702 20.4758 3.30516 42.0097 -5.36709 -23.3249 -11.2556 -5.30023 -35.8578 -31.4841 -33.3204 -6.1909 44.2187 6.732 14.2996 -15.8335 8.52533 3.22036 34.2015 4.62577 0 0 0 24.8287 -20.403 15.7971 -36.3074 -35.8421 -25.4678 32.5075 -20.1327 -30.2715 0 0 0 -38.9625 -46.8078 -36.4786 41.5652 -49.5819 36.601 -24.1812 -27.0411 66.5986 0 0 0 -20.7565 -20.0314 47.7593 
17.0387 -3.036 -52.2589 18.1277 -1.09797 -85.1305 25.2179 -33.2459 18.8949 3.71404 42.6182 -5.66329 -22.9655 -15.2174 -5.54407 -36.6426 -31.4055 -35.2037 -7.34513 45.6226 7.61794 13.3444 -13.3915 7.1 3.75253 34.6703 4.72099 0 0 0 26.9405 -21.6583 14.0107 -37.331 -36.4751 -26.259 30.3683 -19.3018 -29.9742 0 0 0 -40.5282 -49.6767 -35.3047 30.3035 -43.7923 28.3374 -24.0563 -26.3653 62.2959 0 0 0 -21.5132 -20.3784 44.011 
17.0488 -3.3926 -52.1534 17.8502 -1.03497 -84.917 23.7245 -32.5684 16.9706 3.92104 42.9372 -6.08412 -21.9163 -19.2041 -4.81873 -36.9326 -31.5979 -36.4112 -8.36078 46.8926 8.30656 14.5317 -10.3448 6.81896 4.69991 34.9217 3.98844 0 0 0 28.891 -22.0565 11.8684 -38.3967 -37.1307 -27.3515 28.6452 -18.6404 -29.59 0 0 0 -41.7161 -52.041 -33.7391 21.4566 -37.4177 21.6383 -23.7778 -26.282 56.3447 0 0 0 -22.1093 -20.6246 41.0177 
16.8177 -3.4453 -52.0655 17.8586 -0.468992 -84.9181 22.8487 -32.1952 15.0667 4.03555 42.8997 -6.29203 -19.559 -23.2706 -2.73363 -36.3197 -32.5008 -35.8615 -8.44511 47.2896 8.93435 15.0084 -9.67961 7.67785 6.22586 34.653 2.38568 0 0 0 30.9467 -20.945 10.0741 -39.7959 -37.7113 -28.6943 27.1674 -18.3737 -29.2079 0 0 0 -42.5515 -53.12 -32.5533 15.4285 -31.9746 16.4611 -23.2355 -25.0909 48.7686 0 0 0 -22.3945 -21.1798 39.276 
16.4285 -3.3599 -52.0655 17.968 0.232558 -85.0306 22.9178 -32.0106 13.9111 4.4035 42.5113 -6.39927 -17.8006 -25.1344 -0.925322 -34.8465 -33.4974 -34.1763 -8.12838 47.1841 9.19212 14.8528 -10.2439 8.68255 7.98866 34.1808 0.456443 0 0 0 33.1016 -18.3699 7.87927 -41.5662 -38.5627 -30.4009 25.6137 -18.2502 -28.8039 0 0 0 -43.9528 -52.4959 -34.6928 13.3777 -29.3265 13.9624 -21.46 -21.955 42.112 0 0 0 -22.3965 -21.961 38.8858 
15.8534 -3.1691 -52.1584 18.4861 1.14979 -85.1137 24.0121 -32.0776 13.2109 4.38453 42.2874 -6.38181 -15.6371 -25.0644 1.61281 -33.0352 -35.147 -31.774 -7.42621 47.1077 8.69075 15.2206 -11.1471 10.1477 10.0799 33.2249 -1.82251 0 0 0 35.2573 -14.5146 5.73306 -43.6249 -39.5692 -32.4168 24.4922 -18.2547 -27.822 0 0 0 -45.1627 -51.2017 -37.5998 13.5159 -30.8425 13.0398 -18.9465 -16.9541 36.4289 0 0 0 -22.3703 -23.0424 39.6705 
15.1252 -2.9782 -52.2965 19.1146 2.06564 -85.4247 25.2266 -31.4784 13.5788 4.04669 42.4262 -6.13624 -12.4975 -24.3846 4.24278 -30.7673 -36.2791 -30.6644 -7.7105 46.1321 9.62191 15.2675 -12.5888 12.2714 11.5751 32.1429 -3.6562 0 0 0 37.1756 -9.1333 4.40516 -46.5387 -40.7223 -34.7887 24.2251 -18.2642 -25.0848 0 0 0 -47.2131 -48.9533 -43.0131 17.4198 -37.1041 15.2494 -17.2446 -15.2983 29.9289 0 0 0 -21.7191 -24.2531 41.4742 
14.3869 -2.805 -52.3995 19.7385 2.84448 -85.9158 25.8132 -30.5286 14.518 3.84449 42.6722 -5.91921 -9.77734 -23.6697 6.21483 -28.3981 -37.2378 -29.622 -8.13374 45.1427 10.2585 15.8647 -16.7097 15.7544 12.6072 30.8972 -5.21312 0 0 0 38.4282 -3.05395 4.43281 -50.1064 -41.8408 -37.4404 24.1904 -18.4328 -22.3247 0 0 0 -50.3961 -47.8374 -48.3644 24.6723 -44.0563 20.6473 -14.4289 -13.9542 23.5097 0 0 0 -20.6899 -25.1101 43.9341 
13.5733 -2.692 -52.505 20.1913 3.52067 -86.3315 26.1254 -29.8264 15.9167 3.55297 42.982 -5.76408 -7.34891 -22.6884 8.02796 -25.9902 -37.6355 -27.6968 -7.4921 44.3034 10.0483 17.9886 -20.7694 18.4 13.2691 29.5969 -6.26869 0 0 0 38.5818 2.92531 5.75352 -54.0515 -42.7723 -40.2689 24.2815 -18.4219 -18.9666 0 0 0 -54.1684 -47.7647 -53.5883 32.5259 -49.6846 26.6853 -9.13026 -13.3726 19.07 0 0 0 -19.3507 -25.5357 46.5828 
12.6818 -2.6317 -52.5929 20.3203 4.30372 -86.6161 26.2991 -29.6311 17.6757 3.14677 43.3761 -5.66128 -5.33001 -21.4868 9.55493 -24.0465 -37.1258 -26.1131 -6.86883 43.6658 9.75844 17.6309 -24.677 18.8643 13.5229 28.4026 -5.9166 0 0 0 37.5174 7.70566 7.56511 -58.7135 -44.2133 -42.8268 24.0387 -17.58 -15.6709 0 0 0 -58.6155 -46.7143 -59.2455 41.6951 -54.3096 34.179 -2.36503 -12.2405 14.8109 0 0 0 -17.9722 -25.7404 48.7141 
11.843 -2.8175 -52.6657 19.585 4.96135 -86.1084 26.1109 -29.8321 19.447 2.64463 43.8473 -5.71944 -3.80172 -20.1222 10.5445 -22.6134 -35.0666 -25.2821 -7.05851 43.7593 9.33378 17.6251 -26.8812 17.2706 13.5541 27.7658 -4.46271 0 0 0 35.1601 10.7391 9.73308 -63.945 -45.4616 -45.5671 23.7555 -16.0199 -12.1971 0 0 0 -62.7533 -45.3089 -64.0433 50.8993 -56.8007 42.0688 4.82285 -10.9378 10.7766 0 0 0 -16.6388 -25.7387 50.1955 
10.9515 -3.036 -52.7084 18.4359 5.82394 -84.8314 25.9043 -31.0213 21.5471 1.95064 44.199 -5.65208 -2.83543 -18.8491 11.3707 -21.5321 -31.8272 -25.3544 -7.28517 43.6687 8.95261 17.6504 -28.0071 14.8969 12.9958 27.1637 -1.5075 0 0 0 30.9728 11.5162 12.6883 -68.5948 -45.7882 -48.2618 23.5317 -14.1924 -8.39809 0 0 0 -65.5885 -44.908 -65.8924 56.8688 -56.9268 46.9099 11.14 -8.84292 7.314 0 0 0 -15.2109 -25.5812 50.9888 
9.9822 -3.2821 -52.7084 16.9182 6.56978 -82.8397 25.8572 -33.512 24.5666 1.12652 44.2054 -5.40661 -3.05227 -16.8274 10.8538 -20.45 -26.9139 -26.4532 -7.59657 42.7745 8.91669 16.9176 -28.775 11.8497 11.7763 26.6081 2.3877 0 0 0 25.8838 10.6473 15.7596 -72.8095 -45.7841 -50.4557 23.4778 -12.1402 -4.10485 0 0 0 -64.6687 -45.9493 -63.9989 59.0657 -56.5153 48.9651 17.1784 -6.99013 5.32288 0 0 0 -13.434 -25.6609 52.2186 
8.714 -3.5081 -52.6707 15.3985 7.15618 -79.8048 25.7821 -37.0607 27.7109 0.812498 43.4224 -5.0638 -4.84286 -15.4353 9.37793 -19.394 -20.8644 -27.0876 -7.34005 41.5062 7.75703 16.5851 -29.3957 8.60376 10.4693 26.0226 6.44605 0 0 0 21.0769 7.96383 18.1403 -75.6593 -45.2811 -51.5221 25.1635 -9.13992 -1.4256 0 0 0 -58.2541 -47.8976 -57.163 56.7959 -53.8621 46.7559 20.2049 -6.21885 5.051 0 0 0 -11.6463 -25.5697 53.3684 
7.1018 -3.6789 -52.5803 13.7071 7.83836 -76.0156 25.3816 -40.9258 31.1463 1.2574 41.8697 -4.74214 -5.98517 -13.7056 7.5473 -17.8688 -13.6904 -27.4857 -6.98984 39.148 6.76603 16.3896 -29.1456 5.85999 9.16349 25.0522 10.5209 0 0 0 17.1509 4.50457 19.1028 -76.302 -44.5684 -51.1759 30.2007 -5.21309 0.625989 0 0 0 -46.6489 -49.8298 -44.7682 51.2376 -50.7566 42.1781 19.1372 -6.5195 4.87872 0 0 0 -9.89262 -25.2 54.5143 
